<?xml version="1.0" standalone="no"?><!DOCTYPE svg PUBLIC "-//W3C//DTD SVG 1.1//EN" "http://www.w3.org/Graphics/SVG/1.1/DTD/svg11.dtd"><svg t="1649825210285" class="icon" viewBox="0 0 1024 1024" version="1.1" xmlns="http://www.w3.org/2000/svg" p-id="7068" xmlns:xlink="http://www.w3.org/1999/xlink" width="200" height="200"><defs><style type="text/css">@font-face { font-family: feedback-iconfont; src: url("//at.alicdn.com/t/font_1031158_u69w8yhxdu.woff2?t=1630033759944") format("woff2"), url("//at.alicdn.com/t/font_1031158_u69w8yhxdu.woff?t=1630033759944") format("woff"), url("//at.alicdn.com/t/font_1031158_u69w8yhxdu.ttf?t=1630033759944") format("truetype"); }
</style></defs><path d="M615.03 53c47.8 0 94.26 9.44 138.07 28.05 42.37 18 80.48 43.76 113.29 76.56 32.8 32.8 58.56 70.92 76.56 113.29 18.61 43.81 28.05 90.27 28.05 138.07v206.06c0 47.8-9.44 94.26-28.05 138.07-18 42.37-43.76 80.48-76.56 113.29-32.8 32.8-70.92 58.56-113.29 76.56C709.29 961.56 662.84 971 615.03 971H408.97c-47.8 0-94.26-9.44-138.07-28.05-42.37-18-80.48-43.76-113.29-76.56-32.8-32.8-58.56-70.92-76.56-113.29-18.61-43.81-28.05-90.26-28.05-138.07V408.97c0-47.8 9.44-94.26 28.05-138.07 18-42.37 43.76-80.48 76.56-113.29 32.8-32.8 70.92-58.56 113.29-76.56C314.71 62.44 361.16 53 408.97 53h206.06m0-53H408.97C184.04 0 0 184.04 0 408.97v206.06C0 839.96 184.04 1024 408.97 1024h206.06c224.93 0 408.97-184.04 408.97-408.97V408.97C1024 184.04 839.96 0 615.03 0z" p-id="7069" fill="#ffffff"></path><path d="M821.43 723.75L510.7 808.79v-1.64 1.64l-310.73-85.04s-16.35-11.45-16.35-29.44V236.39c0-17.99 14.72-32.71 32.71-32.71h1.64c4.91 0 9.81 1.64 13.08 3.27l279.66 76.87 279.66-75.23c3.27-1.64 8.18-3.27 13.08-3.27h1.64c17.99 0 32.71 14.72 32.71 32.71v457.92c-0.01 17.99-16.37 27.8-16.37 27.8zM477.99 342.7l-228.96-62.15v389.23l228.96 62.15V342.7z m294.38-62.15L543.41 342.7v390.87l228.96-63.78V280.55z" p-id="7070" fill="#ffffff"></path></svg>